<svg width="49" height="48" viewBox="0 0 49 48" fill="none" xmlns="http://www.w3.org/2000/svg">
<rect x="0.476196" width="48" height="48" rx="24" fill="white"/>
<path d="M24.4762 10.5697C28.849 10.5697 29.3674 10.5841 31.0954 10.6657C32.6938 10.7377 33.5626 11.0065 34.1386 11.2321C34.9018 11.5297 35.449 11.8849 36.0202 12.4561C36.5914 13.0273 36.9466 13.5745 37.2442 14.3377C37.4698 14.9137 37.7338 15.7825 37.8106 17.3809C37.8874 19.1089 37.9066 19.6273 37.9066 24.0001C37.9066 28.3729 37.8922 28.8913 37.8106 30.6193C37.7386 32.2177 37.4698 33.0865 37.2442 33.6625C36.9466 34.4257 36.5914 34.9729 36.0202 35.5441C35.449 36.1153 34.9018 36.4705 34.1386 36.7681C33.5626 36.9937 32.6938 37.2577 31.0954 37.3345C29.3674 37.4113 28.849 37.4305 24.4762 37.4305C20.1034 37.4305 19.585 37.4161 17.857 37.3345C16.2586 37.2625 15.3898 36.9937 14.8138 36.7681C14.0506 36.4705 13.5034 36.1153 12.9322 35.5441C12.361 34.9729 12.0058 34.4257 11.7082 33.6625C11.4826 33.0865 11.2186 32.2177 11.1418 30.6193C11.065 28.8913 11.0458 28.3729 11.0458 24.0001C11.0458 19.6273 11.0602 19.1089 11.1418 17.3809C11.2138 15.7825 11.4826 14.9137 11.7082 14.3377C12.0058 13.5745 12.361 13.0273 12.9322 12.4561C13.5034 11.8849 14.0506 11.5297 14.8138 11.2321C15.3898 11.0065 16.2586 10.7425 17.857 10.6657C19.585 10.5841 20.1034 10.5697 24.4762 10.5697ZM24.4762 7.61768C20.0266 7.61768 19.4698 7.63688 17.7226 7.71848C15.9802 7.80008 14.7898 8.07368 13.7434 8.48168C12.6682 8.89448 11.7514 9.45608 10.8442 10.3681C9.93219 11.2801 9.37539 12.1921 8.95299 13.2721C8.54979 14.3137 8.27139 15.5041 8.18979 17.2513C8.10819 18.9985 8.08899 19.5553 8.08899 24.0049C8.08899 28.4545 8.10819 29.0113 8.18979 30.7585C8.27139 32.5009 8.54499 33.6913 8.95299 34.7377C9.37059 35.8081 9.93219 36.7249 10.8442 37.6321C11.7562 38.5441 12.6682 39.1009 13.7482 39.5233C14.7898 39.9265 15.9802 40.2049 17.7274 40.2865C19.4746 40.3681 20.0314 40.3873 24.481 40.3873C28.9306 40.3873 29.4874 40.3681 31.2346 40.2865C32.977 40.2049 34.1674 39.9313 35.2138 39.5233C36.2842 39.1057 37.201 38.5441 38.1082 37.6321C39.0202 36.7201 39.577 35.8081 39.9994 34.7281C40.4026 33.6865 40.681 32.4961 40.7626 30.7489C40.8442 29.0017 40.8634 28.4449 40.8634 23.9953C40.8634 19.5457 40.8442 18.9889 40.7626 17.2417C40.681 15.4993 40.4074 14.3089 39.9994 13.2625C39.5818 12.1921 39.0202 11.2753 38.1082 10.3681C37.1962 9.45608 36.2842 8.89928 35.2042 8.47688C34.1626 8.07368 32.9722 7.79528 31.225 7.71368C29.4826 7.63688 28.9258 7.61768 24.4762 7.61768Z" fill="#0B0014"/>
<path d="M24.4762 15.5854C19.8298 15.5854 16.0618 19.3534 16.0618 23.9998C16.0618 28.6462 19.8298 32.4142 24.4762 32.4142C29.1226 32.4142 32.8906 28.6462 32.8906 23.9998C32.8906 19.3534 29.1226 15.5854 24.4762 15.5854ZM24.4762 29.4622C21.4618 29.4622 19.0138 27.019 19.0138 23.9998C19.0138 20.9806 21.4618 18.5374 24.4762 18.5374C27.4906 18.5374 29.9386 20.9806 29.9386 23.9998C29.9386 27.019 27.4906 29.4622 24.4762 29.4622Z" fill="#0B0014"/>
<path d="M33.2218 17.2226C34.3087 17.2226 35.1898 16.3415 35.1898 15.2546C35.1898 14.1677 34.3087 13.2866 33.2218 13.2866C32.1349 13.2866 31.2538 14.1677 31.2538 15.2546C31.2538 16.3415 32.1349 17.2226 33.2218 17.2226Z" fill="#0B0014"/>
</svg>
