<svg width="140" height="40" viewBox="0 0 140 40" fill="none" xmlns="http://www.w3.org/2000/svg">
<g clip-path="url(#clip0_461_1215)">
<path d="M58.1333 19.8063C54.0001 19.8063 50.9946 22.8138 50.9946 26.6987C50.9946 30.5836 54.0001 33.5911 58.1333 33.5911C62.2665 33.5911 65.2712 30.5829 65.2712 26.6987C65.2712 22.8146 62.2657 19.8063 58.1333 19.8063ZM58.1333 30.959C55.7537 30.959 54.0001 29.205 54.0001 26.6987C54.0001 24.1925 55.7537 22.4377 58.1333 22.4377C60.5128 22.4377 62.2657 24.1925 62.2657 26.6987C62.2657 29.205 60.5121 30.959 58.1333 30.959ZM6.85852 6.86309C-2.28617 16.0139 -2.28617 30.8525 6.85852 40.0002V33.1373C16.0032 42.2881 30.8297 42.2881 39.9736 33.1373H6.85852V6.86309ZM83.7633 19.8063C80.2568 19.8063 79.13 22.4377 79.13 22.4377H79.0042C79.0042 22.4377 78.1281 19.8063 74.8718 19.8063C71.9913 19.8063 70.8644 22.1874 70.8644 22.1874H70.7394L70.6143 20.1824H67.8589V33.215H70.7394V26.1975C70.7394 23.9438 72.3703 22.4377 74.1208 22.4377C75.7517 22.4377 76.7504 23.3151 76.7504 25.3201V33.215H79.6309V26.1975C79.6309 23.9438 81.2618 22.4377 83.0115 22.4377C84.6424 22.4377 85.6419 23.3151 85.6419 25.3201V33.215H88.5216V25.195C88.5216 21.8113 86.6438 19.8063 83.7633 19.8063V19.8063ZM33.1153 0.000194474V33.1373C42.26 23.9865 42.26 9.15098 33.1153 0.000194474ZM0.000194345 6.86309H33.1153C23.9706 -2.2877 9.14489 -2.2877 0.000194345 6.86309ZM120.334 29.0791H120.208L116.325 20.1824H113.32L118.956 33.215H121.585L127.221 20.1824H124.215L120.334 29.0791ZM134.052 19.8063C130.746 19.8063 128.854 21.4461 128.854 21.4461V24.0782H129.23C129.23 24.0782 130.797 22.4377 133.677 22.4377C135.681 22.4377 136.808 23.4402 136.808 25.195V26.3226C136.808 26.3226 135.43 25.4452 133.051 25.4452C129.92 25.4452 128.167 27.2 128.167 29.6557C128.167 31.8364 129.92 33.5911 132.551 33.5911C135.806 33.5911 136.683 31.21 136.683 31.21H136.808L136.933 33.215H139.688V25.0691C139.688 21.8113 137.684 19.8063 134.052 19.8063V19.8063ZM133.176 31.0857C131.923 31.0857 131.172 30.4593 131.172 29.3317C131.172 28.204 132.048 27.4518 133.552 27.4518C135.804 27.4518 136.807 28.3292 136.807 28.3292C136.807 28.3292 136.181 31.0857 133.176 31.0857ZM109.614 14.1674C108.687 14.1674 107.936 14.7938 107.936 15.8717C107.936 16.9239 108.687 17.551 109.614 17.551C110.565 17.551 111.317 16.9239 111.317 15.8717C111.317 14.7938 110.565 14.1674 109.614 14.1674ZM108.183 33.215H111.064V20.1824H108.183V33.215ZM99.4184 19.8063C96.2878 19.8063 95.161 22.1874 95.161 22.1874H95.0359L94.9101 20.1824H92.1554V33.215H95.0359V26.1975C95.0359 24.0666 96.7888 22.4377 98.7924 22.4377C100.545 22.4377 101.673 23.4402 101.673 25.3201V33.215H104.553V25.195C104.553 21.8113 102.549 19.8063 99.4184 19.8063Z" fill="#FF6600"/>
</g>
<defs>
<clipPath id="clip0_461_1215">
<rect width="139.688" height="40" fill="white"/>
</clipPath>
</defs>
</svg>
