<svg width="103" height="128" viewBox="0 0 103 128" fill="none" xmlns="http://www.w3.org/2000/svg">
<g clip-path="url(#clip0_289_2736)">
<path d="M89.8762 63.9999L102.676 51.1999L89.8762 38.3999L77.0762 51.1999L83.4762 57.5999L57.8762 83.1999V50.8271L51.4762 44.4271L45.0762 50.8271V83.1999L19.4762 57.5999L25.8762 51.1999L13.0762 38.3999L0.276184 51.1999L13.0762 63.9999L6.67618 70.3999L38.6762 102.4L32.2762 108.8L51.4762 128L70.6762 108.8L64.2762 102.4L96.2762 70.3999L89.8762 63.9999Z" fill="#0B0014"/>
<path d="M51.4762 17.0718L68.548 34.1282L77.0761 25.6L60.0043 8.52816L51.4762 0L42.948 8.52816L25.8762 25.6L34.4043 34.1282L51.4762 17.0718Z" fill="#0B0014"/>
</g>
<defs>
<clipPath id="clip0_289_2736">
<rect width="102.4" height="128" fill="none" transform="translate(0.276184)"/>
</clipPath>
</defs>
</svg>
