<svg width="49" height="48" viewBox="0 0 49 48" fill="none" xmlns="http://www.w3.org/2000/svg">
<rect x="0.476196" width="48" height="48" rx="24" fill="white"/>
<path d="M18.9082 36.1921C30.2266 36.1921 36.4234 26.8129 36.4234 18.6769C36.4234 18.4129 36.4234 18.1441 36.4042 17.8801C37.609 17.0065 38.6506 15.9313 39.4762 14.6929C38.353 15.1921 37.1626 15.5185 35.9434 15.6625C37.2298 14.8945 38.1898 13.6849 38.6506 12.2593C37.441 12.9745 36.121 13.4833 34.7434 13.7521C32.4106 11.2753 28.513 11.1553 26.0362 13.4833C24.4378 14.9857 23.761 17.2273 24.2554 19.3633C19.3066 19.1137 14.6938 16.7761 11.569 12.9313C9.93698 15.7441 10.7674 19.3393 13.4746 21.1489C12.4954 21.1201 11.5354 20.8561 10.681 20.3809C10.681 20.4049 10.681 20.4337 10.681 20.4577C10.681 23.3857 12.745 25.9105 15.6202 26.4913C14.713 26.7361 13.7626 26.7745 12.841 26.5969C13.6474 29.1025 15.9562 30.8209 18.5914 30.8737C16.4122 32.5873 13.7194 33.5185 10.9498 33.5137C10.4602 33.5137 9.97058 33.4849 9.48578 33.4225C12.289 35.2321 15.5674 36.1921 18.9082 36.1873" fill="#0B0014"/>
</svg>
