<svg width="39" height="49" viewBox="0 0 39 49" fill="none" xmlns="http://www.w3.org/2000/svg">
<g clip-path="url(#clip0_314_72)">
<path d="M33.6 24.5L38.4 19.7L33.6 14.9L28.8 19.7L31.2 22.1L21.6 31.7V19.5602L19.2 17.1602L16.8 19.5602V31.7L7.2 22.1L9.6 19.7L4.8 14.9L0 19.7L4.8 24.5L2.4 26.9L14.4 38.9L12 41.3L19.2 48.5L26.4 41.3L24 38.9L36 26.9L33.6 24.5Z" fill="white"/>
<path d="M19.2001 6.90194L25.602 13.2981L28.8001 10.1L22.3982 3.69806L19.2001 0.5L16.002 3.69806L9.6001 10.1L12.7982 13.2981L19.2001 6.90194Z" fill="white"/>
</g>
<defs>
<clipPath id="clip0_314_72">
<rect width="38.4" height="48" fill="white" transform="translate(0 0.5)"/>
</clipPath>
</defs>
</svg>
